<svg width="210" height="210" viewBox="0 0 210 210" fill="none" xmlns="http://www.w3.org/2000/svg">
<circle cx="104.737" cy="104.737" r="104.737" fill="#FBBD5E"/>
<path d="M126.723 152.889C164.166 103.126 211.902 51.0638 191.838 31.6328C171.506 10.9251 98.096 39.3656 54.1213 79.6378C8.30877 118.057 37.6445 160.816 46.0873 169.366C55.6838 178.84 91.4655 203.525 126.723 152.889Z" fill="#4FBF9F"/>
<path d="M191.838 31.6329C184.649 24.3101 170.809 23.156 153.994 26.474C159.867 27.2615 165.286 30.0605 169.327 34.3945C187.729 55.4068 135.882 103.376 94.4812 149.899C80.3258 167.037 66.9128 174.397 55.1234 176.36C70.4067 185.81 98.7222 193.104 126.722 152.89C164.166 103.126 211.902 51.064 191.838 31.6329Z" fill="#3BA385"/>
<path fill-rule="evenodd" clip-rule="evenodd" d="M195.245 28.2029C188.744 21.6179 178.667 19.5021 167.749 19.9037C156.648 20.3119 143.673 23.3444 130.2 28.2228C103.275 37.972 73.4079 55.4431 50.9339 76.0022C26.7959 96.2849 22.056 118.248 24.9858 136.47C27.8457 154.258 37.9048 167.96 42.6475 172.763L42.6692 172.785L42.6912 172.807C47.9184 177.967 60.2882 187.352 76.4423 188.491C93.0779 189.664 112.306 182.016 130.638 155.725C136.753 147.6 143.211 139.33 149.63 131.11C162.593 114.51 175.398 98.1129 184.897 83.5241C192.018 72.587 197.622 62.1795 200.065 53.0249C202.515 43.8394 202.019 34.7998 195.245 28.2029ZM133.492 37.3133C107.666 46.6642 78.878 63.5206 57.3861 83.203L57.3083 83.2742L57.2275 83.342C35.6235 101.459 32.1389 120.056 34.5313 134.936C36.9921 150.241 45.7937 162.178 49.506 165.949C53.8883 170.266 64.1943 177.935 77.1222 178.847C89.5752 179.725 105.846 174.412 122.755 150.127L122.806 150.054L122.86 149.982C129.253 141.485 135.874 133.009 142.379 124.681C155.173 108.302 167.516 92.4992 176.795 78.2488C183.78 67.5212 188.688 58.1597 190.723 50.5326C192.745 42.9561 191.692 38.2204 188.475 35.1055L188.431 35.0631L188.389 35.0197C184.722 31.2849 178.019 29.2005 168.104 29.5652C158.348 29.924 146.409 32.636 133.492 37.3133Z" fill="#183651"/>
<path fill-rule="evenodd" clip-rule="evenodd" d="M154.047 58.4685C155.702 60.5628 155.347 63.6029 153.252 65.2586C105.998 102.616 65.1354 147.413 32.2667 197.893C30.81 200.13 27.8154 200.763 25.5781 199.306C23.3408 197.85 22.708 194.855 24.1648 192.618C57.6056 141.259 99.1793 95.6823 147.257 57.6743C149.351 56.0186 152.391 56.3742 154.047 58.4685Z" fill="#183651"/>
<path fill-rule="evenodd" clip-rule="evenodd" d="M106.413 64.6145C108.984 63.8927 111.652 65.3912 112.374 67.9616C114.292 74.7928 116.238 81.6732 118.211 88.6027C125.375 90.7312 132.547 92.8512 139.728 94.9627C142.289 95.7159 143.755 98.4029 143.001 100.964C142.248 103.525 139.561 104.991 137 104.238C128.96 101.874 120.93 99.4988 112.911 97.1134L110.368 96.357L109.64 93.8056C107.415 86.0005 105.223 78.257 103.066 70.5754C102.344 68.0051 103.843 65.3363 106.413 64.6145Z" fill="#183651"/>
<path fill-rule="evenodd" clip-rule="evenodd" d="M74.7735 84.6552C77.1011 83.3476 80.048 84.1743 81.3557 86.5019C85.9471 94.6743 90.6082 102.936 95.339 111.289C103.548 115.984 111.707 120.607 119.813 125.158C122.141 126.465 122.969 129.411 121.662 131.739C120.355 134.067 117.409 134.895 115.081 133.588C106.571 128.811 98.0064 123.956 89.3855 119.021L88.2348 118.362L87.5812 117.209C82.6202 108.454 77.7354 99.7965 72.9268 91.2374C71.6191 88.9099 72.4459 85.9629 74.7735 84.6552Z" fill="#183651"/>
<path fill-rule="evenodd" clip-rule="evenodd" d="M54.3554 114.096C56.7479 112.912 59.6478 113.891 60.8324 116.283C64.3318 123.351 67.9312 130.527 71.6308 137.811C78.4875 141.293 85.2646 144.684 91.9623 147.985C94.3571 149.165 95.3418 152.063 94.1617 154.458C92.9816 156.853 90.0836 157.837 87.6888 156.657C80.4964 153.113 73.2145 149.465 65.8432 145.714L64.4406 145.001L63.727 143.598C59.7611 135.802 55.9081 128.127 52.1682 120.573C50.9836 118.181 51.9628 115.281 54.3554 114.096Z" fill="#183651"/>
</svg>
