<svg id="Layer_1" data-name="Layer 1" xmlns="http://www.w3.org/2000/svg" xmlns:xlink="http://www.w3.org/1999/xlink" viewBox="0 0 801.36 362.64"><defs><style>.cls-1{fill:none;}.cls-2{clip-path:url(#clip-path);}.cls-3{fill:#0477aa;}.cls-4{fill:#f9f9f9;}.cls-5{fill:#ffb919;}.cls-6{fill:#035d7c;}.cls-7{clip-path:url(#clip-path-2);}.cls-8{fill:#042e3a;}</style><clipPath id="clip-path"><rect class="cls-1" x="-94.8" y="-304.93" width="1000" height="1000"/></clipPath><clipPath id="clip-path-2"><path class="cls-1" d="M36.66,87.43S19.39,240.85,143.49,296.55C267.58,240.85,250.32,87.43,250.32,87.43c-66.91-5.86-106.83-32.24-106.83-32.24S104,67.09,36.66,87.43"/></clipPath></defs><title>logo-v2</title><g class="cls-2"><path class="cls-3" d="M356,80.58a26.39,26.39,0,0,1,11.68,10,27.22,27.22,0,0,1,4,14.68q0,15.24-9.62,23.71t-27.42,8.48h-24.5l-3.27,41H284.65l8-101.42h45A43.51,43.51,0,0,1,356,80.58m-9.9,36.25q4.62-3.63,4.63-10.32,0-12.41-15.95-12.4H313.57l-2.14,26.36h21.09q9,0,13.6-3.64"/><path class="cls-3" d="M435.36,113q8.68,8.63,8.69,24a61,61,0,0,1-.43,7.12H396.33q.14,9.55,4.77,14.46t13.61,4.91a35.2,35.2,0,0,0,21.36-7.26l4.56,14.53a35.1,35.1,0,0,1-12.11,6.48,49.08,49.08,0,0,1-15.24,2.35,43.22,43.22,0,0,1-19.8-4.34,31,31,0,0,1-13.17-12.4,36.85,36.85,0,0,1-4.63-18.73,43.9,43.9,0,0,1,4.7-20.58,34.89,34.89,0,0,1,13-14.1,35.42,35.42,0,0,1,18.73-5.06q14.53,0,23.22,8.62m-38,20.44h28.91q0-6.69-3.56-10.33T413,119.47q-12.83,0-15.67,14"/><path class="cls-3" d="M450.6,170.75l7-15a48.65,48.65,0,0,0,12.82,6.34,44.36,44.36,0,0,0,13.67,2.21c4,0,6.93-.57,8.84-1.71a5.16,5.16,0,0,0,2.84-4.56q0-3-3.34-4.7a72.34,72.34,0,0,0-10.9-4,100.47,100.47,0,0,1-12.82-4.27,23.62,23.62,0,0,1-8.62-6.34q-3.63-4.2-3.63-10.9a20,20,0,0,1,3.92-12.25,25.79,25.79,0,0,1,11.11-8.26,42.59,42.59,0,0,1,16.45-3,53.14,53.14,0,0,1,15.88,2.42,40.68,40.68,0,0,1,13,6.55L510,127.73a41.87,41.87,0,0,0-11.11-5.84,35.16,35.16,0,0,0-11.4-2q-5.83,0-8.83,1.71a5.22,5.22,0,0,0-3,4.7q0,3.13,3.56,5a57.78,57.78,0,0,0,10.83,3.85,111.32,111.32,0,0,1,12.75,4.41,23.77,23.77,0,0,1,8.54,6.34q3.63,4.2,3.63,10.9a19.45,19.45,0,0,1-8.47,16.74q-8.47,6-22.86,6.05-18.52,0-33-8.83"/><path class="cls-3" d="M555,150.38q-.42,6,2.42,8.83a10.59,10.59,0,0,0,7.84,2.85,26.65,26.65,0,0,0,7.26-1.14l-1.42,16.67a33.53,33.53,0,0,1-12.54,2q-12.26,0-18.73-6.55t-6.48-18.52c0-1.61,0-2.85.14-3.7l2.28-28.49H522.11l1.28-16.1h13.67l1.28-17,22.08-7-1.85,23.93H577l-1.29,16.1H557.29Z"/><path class="cls-3" d="M299.75,306.54a65.61,65.61,0,0,1-19.23-8.19l9.83-18.94A61.38,61.38,0,0,0,323.54,289q16.66,0,16.67-8.26c0-2.94-1.55-5.25-4.63-6.91A84.19,84.19,0,0,0,321,268.3a132.13,132.13,0,0,1-17.24-6.06,32.28,32.28,0,0,1-11.75-9q-4.92-5.91-4.91-15.46a27.9,27.9,0,0,1,5.41-17,34.45,34.45,0,0,1,15.31-11.32q9.9-4,23.15-4a74.54,74.54,0,0,1,21.22,3q10.11,3,16.1,8.12l-9.54,18.94a50.51,50.51,0,0,0-13.82-7.05A46.37,46.37,0,0,0,330.38,226q-7.85,0-12.39,2.49t-4.56,6.91q0,4.56,4.63,7t14.74,5.27a134.58,134.58,0,0,1,17.31,6,32,32,0,0,1,11.68,8.83q4.9,5.84,4.91,15.1,0,15.24-11.54,23.57t-32.62,8.33a89.19,89.19,0,0,1-22.79-2.92"/><path class="cls-3" d="M449.18,240.73q6.12,6.92,6.12,20.16c0,2.09-.05,3.7-.14,4.84l-3.42,42.45H426l3.42-41.45.14-2.14q0-5.26-2.49-8c-1.67-1.86-4.11-2.78-7.34-2.78-3.9,0-6.93,1.26-9.12,3.77s-3.42,6-3.7,10.33l-3.28,40.31H377.81l8.26-104.84h25.79l-3.14,39.46a28.9,28.9,0,0,1,9.76-6.55,32.13,32.13,0,0,1,12.61-2.42q12,0,18.09,6.9"/><path class="cls-3" d="M472.39,235.82h25.79l-5.7,72.36H466.7Zm29.2-35.47-1.85,23.22H472.82l1.71-23.22Z"/><path class="cls-3" d="M568.4,242.66q8.83,8.84,8.83,24.64a64.59,64.59,0,0,1-.43,7.26H531.93q.44,8.13,4.56,12t12,3.85a34.83,34.83,0,0,0,20.37-6.7L574,300.63a34.16,34.16,0,0,1-12,6.41,50.41,50.41,0,0,1-15.31,2.28A45.71,45.71,0,0,1,526,304.9a32.35,32.35,0,0,1-13.74-12.46,35.86,35.86,0,0,1-4.85-18.87,42.45,42.45,0,0,1,4.92-20.51,35.77,35.77,0,0,1,32.12-19.23q15.09,0,23.93,8.83m-31,11.46q-3.21,2.64-4.49,8.48h23.22c-.1-3.61-1.09-6.36-3-8.26a10.4,10.4,0,0,0-7.69-2.85,12.28,12.28,0,0,0-8.05,2.63"/><polygon class="cls-3" points="595.03 203.34 620.82 203.34 612.41 308.18 586.63 308.18 595.03 203.34"/><path class="cls-3" d="M712.55,203.34l-8.41,104.84H678.65l.57-8.12a23.86,23.86,0,0,1-8.91,6.84,28.88,28.88,0,0,1-12,2.42,30.61,30.61,0,0,1-16.1-4.2,28.62,28.62,0,0,1-10.9-12,40.94,40.94,0,0,1-3.91-18.51,48.48,48.48,0,0,1,4.41-21.09A34.8,34.8,0,0,1,644.11,239a32,32,0,0,1,18-5.19q13.53,0,21.23,9.68l3.13-40.17ZM677.72,285q3.91-5.26,3.92-13.81,0-9-3.56-13.46t-10.26-4.49a13,13,0,0,0-11,5.27q-4,5.26-4,14.24,0,8.55,3.77,13t10.61,4.48A12.38,12.38,0,0,0,677.72,285"/><path class="cls-3" d="M731.63,307.26A68.28,68.28,0,0,1,715,300.63l8.12-17.52a49.72,49.72,0,0,0,13.25,6.2,48.42,48.42,0,0,0,14.1,2.21q4.69,0,6.91-1.22a3.51,3.51,0,0,0,2.2-3.06q0-2.42-3.06-3.84a61.43,61.43,0,0,0-9.61-3.14,101.72,101.72,0,0,1-13.18-4.34,25.27,25.27,0,0,1-9-6.48q-3.85-4.28-3.85-11.26a20.64,20.64,0,0,1,4.13-12.67,26.5,26.5,0,0,1,11.61-8.62,45,45,0,0,1,17.16-3.06,59.36,59.36,0,0,1,16.46,2.35,46.12,46.12,0,0,1,13.88,6.34l-7.83,17.09a48.2,48.2,0,0,0-11.54-5.7,36.39,36.39,0,0,0-11.54-2,16.41,16.41,0,0,0-7.12,1.21c-1.61.81-2.42,1.83-2.42,3.06q0,2.56,3.13,4.06a65.13,65.13,0,0,0,9.83,3.35,105.58,105.58,0,0,1,12.89,4.34,24.44,24.44,0,0,1,9,6.55,16.49,16.49,0,0,1,3.77,11.19q0,11.25-8.62,17.44t-23.71,6.2a76.77,76.77,0,0,1-18.24-2.06"/><path class="cls-3" d="M267.24,73.43C186.75,50.64,143.49,36.07,143.49,36.07S100.23,50.64,19.74,73.43c0,0-20,177.71,123.75,242.23C287.24,251.14,267.24,73.43,267.24,73.43"/><path class="cls-4" d="M262.42,77.41c-77.35-21.9-118.93-35.9-118.93-35.9s-41.57,14-118.94,35.9c0,0-19.22,170.8,118.94,232.81,138.16-62,118.93-232.81,118.93-232.81"/><path class="cls-5" d="M257.34,97.86c-66.67-17-106.83-30.64-106.83-30.64S110.58,92.29,43.68,97.86c0,0-15,137.82,99.31,199,124.09-52.92,114.35-199,114.35-199"/><path class="cls-6" d="M250.32,87.43C187.17,67.09,143.49,55.18,143.49,55.18S103,67.09,36.66,87.43c0,0-17.27,153.42,106.83,209.12C267.58,240.85,250.32,87.43,250.32,87.43"/></g><g class="cls-7"><path class="cls-8" d="M247.06,248.86q-.39-12.26-5.79-20.89t-18-14.81Q210.72,207,189,203a145.59,145.59,0,0,1-20.22-4.82q-6.77-2.34-9.3-4.94a9.54,9.54,0,0,1-2.67-6.6q-.22-7.35,6.54-11.92t18.12-4.93A72.51,72.51,0,0,1,204.72,173a103.22,103.22,0,0,1,24.51,11.59s4.5-10.28,6-15c1-3,3.87-16.05,3.87-16.05q-9.39-7.5-25.69-11.77A116.71,116.71,0,0,0,180,138c-1.4.05-2.76.13-4.12.23A53.38,53.38,0,0,0,177.66,124q0-22.4-15-35.5t-42.33-13.1H44.39V234.89L86.5,254.74V172.62h32.81a44.65,44.65,0,0,0-3.2,18.44q.4,12.69,5.71,21.45t18,14.92q12.67,6.16,35.32,9.9,17.94,3.22,24.53,6.91t6.77,9.71q.21,6.68-6.79,10.58t-20.38,4.33A91,91,0,0,1,153,265.8a97.75,97.75,0,0,1-25-10.46l-12.19,30q11.16,7.67,28.69,11.79a134.75,134.75,0,0,0,35.34,3.55q32.75-1.05,50.37-14.88t16.87-37M86.5,141.26v-34h28.22q12.32,0,18,4.37t5.71,12.88q0,16.8-23.74,16.8Z"/><path class="cls-5" d="M243.41,260q-.39-12.25-5.8-20.89t-18-14.81q-12.57-6.17-34.33-10.16a147.34,147.34,0,0,1-20.22-4.81q-6.77-2.35-9.3-5a9.49,9.49,0,0,1-2.66-6.6q-.24-7.35,6.53-11.92T177.78,181a72.26,72.26,0,0,1,23.29,3.15,86.35,86.35,0,0,1,22.41,10.55s2.6-3.15,6.75-13.12c5-12,6-16,6-16-6.26-5-15.62-9.81-26.48-12.66a116.46,116.46,0,0,0-33.46-3.72,93.92,93.92,0,0,0-20,2.71q8.27-11.48,8.27-27.81,0-22.4-15-35.5t-42.34-13.1H31.35V234.89l42.11,18.84V172.62h33.82a89.92,89.92,0,0,0,16-1.35,48.37,48.37,0,0,0-3.4,4.51,44.33,44.33,0,0,0-7.4,26.43q.41,12.71,5.7,21.45t18,14.92q12.69,6.18,35.32,9.91,17.94,3.21,24.53,6.9t6.78,9.71q.21,6.69-6.8,10.58T175.6,280A91,91,0,0,1,149.3,277a98.31,98.31,0,0,1-25-10.46l-12.2,30q11.18,7.66,28.7,11.79a134.75,134.75,0,0,0,35.34,3.55q32.75-1,50.36-14.87t16.88-37M101.68,141.26H73.46v-34h28.22q12.31,0,18,4.37t5.72,12.88q0,16.8-23.75,16.8"/></g><path class="cls-5" d="M147.67,67.07c7.84,1.9,15.61,4,23.35,6.21s15.45,4.49,23.13,6.85c3.86,1.15,7.68,2.41,11.51,3.61s7.67,2.43,11.49,3.7c7.64,2.48,15.26,5.07,22.86,7.71l1.05.36.07,1c.2,3.1.27,6.11.3,9.17s-.09,6.08-.24,9.12-.42,6.06-.75,9.08-.79,6-1.32,9c.07-3,.15-6.05.13-9.07s0-6-.13-9-.25-6-.44-9-.44-6-.79-8.93L239,98.25c-7.71-2.31-15.4-4.66-23.06-7.11q-5.76-1.8-11.48-3.71c-3.81-1.27-7.65-2.48-11.45-3.8q-11.43-3.85-22.78-8c-7.56-2.74-15.1-5.56-22.57-8.6"/></svg>