<svg width="175" height="62" viewBox="0 0 175 62" fill="none" xmlns="http://www.w3.org/2000/svg">
<path d="M76.4935 8.97542C77.5981 9.45873 78.5338 10.2599 79.1815 11.2768C79.803 12.2918 80.1223 13.463 80.1021 14.6529C80.1021 16.9942 79.3641 18.8139 77.8882 20.1118C76.4122 21.4098 74.3087 22.0603 71.5777 22.0634H65.9393L65.1868 31.4991H60.0708L61.9119 8.15843H72.2682C73.7192 8.1213 75.1609 8.40006 76.4935 8.97542ZM74.2151 17.318C74.924 16.761 75.2791 15.9693 75.2807 14.9429C75.2807 13.0404 74.0571 12.0892 71.61 12.0892H66.7241L66.2316 18.1557H71.0852C72.4661 18.1557 73.5094 17.8764 74.2151 17.318Z" fill="#F9F9F9"/>
<path d="M94.7529 16.4411C96.0862 17.7621 96.7529 19.6032 96.7529 21.9645C96.7519 22.5121 96.7188 23.0592 96.6539 23.603H85.7706C85.7906 25.0667 86.1565 26.176 86.8684 26.9309C87.5803 27.6857 88.6244 28.0624 90.0006 28.0608C91.7781 28.0583 93.5054 27.4712 94.9163 26.39L95.9658 29.7339C95.1441 30.4097 94.1969 30.9165 93.1788 31.2252C92.0451 31.5869 90.8614 31.7671 89.6715 31.7592C88.0949 31.7922 86.533 31.4498 85.1147 30.7604C83.8432 30.1316 82.788 29.138 82.0838 27.9066C81.3521 26.5899 80.9843 25.1021 81.0183 23.5961C80.9901 21.9568 81.3613 20.3352 82.0999 18.8714C82.7745 17.5315 83.8109 16.4074 85.0917 15.6264C86.3922 14.8446 87.885 14.4413 89.4022 14.4619C91.6315 14.4619 93.4128 15.1232 94.746 16.4457L94.7529 16.4411ZM86.0008 21.1498H92.6541C92.6541 20.1233 92.381 19.3309 91.8348 18.7724C91.2886 18.214 90.546 17.9355 89.607 17.937C87.6401 17.937 86.438 19.011 86.0008 21.159" fill="#F9F9F9"/>
<path d="M98.2603 29.7339L99.8712 26.2818C100.777 26.9109 101.772 27.4025 102.822 27.7409C103.837 28.0741 104.899 28.2457 105.968 28.2495C106.888 28.2495 107.562 28.1183 108.002 27.856C108.197 27.7579 108.361 27.6081 108.476 27.423C108.591 27.2379 108.654 27.0246 108.656 26.8065C108.656 26.3462 108.399 25.9857 107.887 25.7249C107.077 25.3513 106.238 25.0435 105.378 24.8043C104.374 24.5433 103.388 24.215 102.428 23.8216C101.664 23.4934 100.985 22.9943 100.444 22.3625C99.8873 21.7182 99.6089 20.882 99.6089 19.854C99.591 18.8406 99.9081 17.8496 100.511 17.0348C101.173 16.1793 102.058 15.5218 103.068 15.1339C104.272 14.6558 105.558 14.4212 106.854 14.4435C108.093 14.4429 109.325 14.6306 110.508 15.0004C111.588 15.3189 112.602 15.8295 113.5 16.5078L111.926 19.8195C111.149 19.2514 110.291 18.8031 109.381 18.4893C108.537 18.1921 107.651 18.0366 106.757 18.029C105.862 18.029 105.185 18.1625 104.725 18.4226C104.519 18.5198 104.345 18.6731 104.223 18.8649C104.101 19.0567 104.036 19.2791 104.034 19.5065C104.034 19.9852 104.308 20.3695 104.854 20.6572C105.653 21.0347 106.488 21.3315 107.346 21.5432C108.342 21.8206 109.321 22.158 110.276 22.5536C111.033 22.8852 111.705 23.3841 112.241 24.0126C112.798 24.657 113.077 25.4932 113.077 26.5212C113.104 27.2763 112.939 28.0261 112.598 28.7005C112.257 29.375 111.751 29.9522 111.127 30.3783C109.828 31.2988 108.074 31.7629 105.866 31.7706C103.023 31.7706 100.488 31.0932 98.2603 29.7385" fill="#F9F9F9"/>
<path d="M122.289 25.0461C122.224 25.9666 122.41 26.644 122.846 27.0782C123.086 27.304 123.37 27.4785 123.681 27.5913C123.991 27.704 124.321 27.7526 124.65 27.7341C125.216 27.7242 125.779 27.6359 126.321 27.4717L125.994 31.2989C125.07 31.6348 124.091 31.791 123.108 31.7592C121.229 31.7592 119.792 31.2568 118.798 30.2518C117.803 29.2469 117.306 27.8315 117.306 26.0058C117.306 25.6352 117.306 25.3499 117.339 25.1542L117.863 18.5976H114.717L115.012 14.8924H118.158L118.452 10.98L123.534 9.36902L123.108 14.8762H127.331L127.034 18.5815H122.814L122.289 25.0461Z" fill="#F9F9F9"/>
<path d="M63.5437 60.9868C61.9773 60.599 60.4832 59.9627 59.1182 59.102L61.3804 54.7431C63.6639 56.1909 66.315 56.9529 69.0187 56.9387C71.5763 56.9387 72.8551 56.305 72.8551 55.0377C72.8551 54.3611 72.4984 53.8295 71.7896 53.4475C70.711 52.924 69.5862 52.5018 68.4296 52.1863C67.0766 51.8132 65.7509 51.3472 64.462 50.7916C63.4124 50.32 62.4866 49.6109 61.7579 48.7204C61.003 47.8137 60.6263 46.6277 60.6279 45.1625C60.6035 43.7572 61.0409 42.3828 61.8729 41.2501C62.7793 40.0679 64.0005 39.1651 65.3963 38.6449C66.9153 38.0312 68.6912 37.7244 70.7241 37.7244C72.3767 37.7181 74.0215 37.9506 75.6076 38.4148C77.1587 38.8751 78.3938 39.498 79.3128 40.2835L77.1173 44.6469C76.1463 43.9496 75.0735 43.4062 73.9368 43.036C72.8598 42.6679 71.7309 42.4744 70.5929 42.4629C69.3916 42.4629 68.4388 42.6539 67.7415 43.036C67.0441 43.418 66.692 43.9565 66.692 44.6262C66.692 45.2959 67.0464 45.8621 67.7576 46.2372C68.4687 46.6123 69.5987 47.0128 71.1498 47.45C72.5072 47.8204 73.8381 48.2818 75.1335 48.8309C76.1743 49.2928 77.0942 49.9891 77.8215 50.8653C78.5733 51.7613 78.95 52.9197 78.9515 54.3404C78.9515 56.6786 78.0663 58.4867 76.2957 59.7648C74.5252 61.0428 72.0228 61.6818 68.7886 61.6818C67.0176 61.6774 65.2547 61.4438 63.5437 60.9868Z" fill="#F9F9F9"/>
<path d="M97.9333 45.839C98.8723 46.8991 99.3418 48.4457 99.3418 50.4786C99.3418 50.9596 99.3302 51.3301 99.3095 51.5924L98.5225 61.3618H92.5803L93.3674 51.8226L93.3996 51.3301C93.3996 50.5231 93.2086 49.9094 92.8265 49.489C92.4422 49.0609 91.8807 48.8492 91.1373 48.8492C90.2398 48.8492 89.5424 49.1392 89.0384 49.7168C88.5344 50.2945 88.2514 51.0976 88.1869 52.0941L87.4321 61.371H81.5083L83.4092 37.2433H89.3445L88.6219 46.3246C89.2594 45.6735 90.024 45.1605 90.868 44.8172C91.7881 44.4381 92.7751 44.2487 93.7701 44.2602C95.6112 44.2602 96.9989 44.7895 97.9333 45.8482" fill="#F9F9F9"/>
<path d="M103.275 44.7091H109.21L107.898 61.362H101.965L103.275 44.7091ZM109.995 36.5461L109.569 41.8853H103.374L103.767 36.5415L109.995 36.5461Z" fill="#F9F9F9"/>
<path d="M125.37 46.2833C126.727 47.638 127.404 49.5282 127.402 51.9539C127.401 52.5122 127.368 53.07 127.304 53.6247H116.975C117.042 54.872 117.391 55.788 118.024 56.3863C118.657 56.9847 119.575 57.2701 120.786 57.2701C122.471 57.2616 124.112 56.723 125.474 55.7304L126.641 59.6244C125.828 60.2963 124.889 60.798 123.879 61.0996C122.739 61.4548 121.55 61.6318 120.356 61.6243C118.718 61.6587 117.096 61.3104 115.617 60.6071C114.306 59.9804 113.206 58.9836 112.455 57.7396C111.689 56.4213 111.302 54.9166 111.339 53.3922C111.313 51.748 111.703 50.1238 112.471 48.6698C113.175 47.3221 114.238 46.1955 115.543 45.4145C116.848 44.6334 118.343 44.2284 119.863 44.2442C122.178 44.2442 124.014 44.9224 125.37 46.2786V46.2833ZM118.236 48.916C117.744 49.3211 117.399 49.9716 117.203 50.8676H122.547C122.524 50.0368 122.296 49.4039 121.856 48.9667C121.621 48.7431 121.343 48.5697 121.039 48.4569C120.734 48.3442 120.41 48.2944 120.086 48.3108C119.421 48.2892 118.768 48.5036 118.245 48.916" fill="#F9F9F9"/>
<path d="M131.499 37.2341H137.434L135.499 61.3619H129.566L131.499 37.2341Z" fill="#F9F9F9"/>
<path d="M158.545 37.2341L156.61 61.3619H150.743L150.875 59.4931C150.325 60.1727 149.622 60.7122 148.824 61.0673C147.954 61.4481 147.012 61.6381 146.062 61.6242C144.762 61.6503 143.479 61.3158 142.357 60.6576C141.272 59.9981 140.401 59.0391 139.849 57.896C139.216 56.562 138.906 55.0982 138.942 53.6223C138.912 51.9495 139.259 50.2915 139.957 48.771C140.576 47.4199 141.558 46.2677 142.794 45.4432C144.025 44.6405 145.468 44.2238 146.937 44.2464C149.013 44.2464 150.641 44.9898 151.823 46.4765L152.543 37.2318L158.545 37.2341ZM150.529 56.018C151.129 55.2095 151.43 54.1501 151.431 52.8398C151.431 51.459 151.158 50.4303 150.612 49.7399C150.067 49.0494 149.277 48.7088 148.251 48.7088C147.762 48.6885 147.275 48.7885 146.834 48.9999C146.393 49.2114 146.01 49.5279 145.719 49.9217C145.106 50.7302 144.799 51.8226 144.799 53.1988C144.799 54.5106 145.088 55.5079 145.666 56.1906C146.245 56.8734 147.059 57.2171 148.108 57.2217C148.579 57.2343 149.045 57.1301 149.466 56.9185C149.886 56.7068 150.248 56.3943 150.518 56.0088" fill="#F9F9F9"/>
<path d="M162.936 61.1479C161.596 60.8119 160.307 60.2996 159.102 59.6244L160.971 55.5923C161.911 56.2157 162.939 56.6965 164.02 57.0192C165.071 57.3474 166.164 57.518 167.265 57.5255C167.985 57.5255 168.515 57.4327 168.855 57.247C168.998 57.19 169.121 57.0934 169.211 56.9686C169.301 56.8439 169.353 56.6962 169.362 56.5428C169.362 56.1715 169.127 55.8769 168.657 55.6591C167.941 55.3578 167.202 55.1162 166.446 54.9364C165.413 54.6729 164.4 54.3392 163.413 53.9376C162.621 53.5992 161.913 53.0899 161.341 52.4463C160.749 51.7912 160.454 50.9274 160.455 49.855C160.439 48.8094 160.768 47.7877 161.392 46.9483C162.081 46.0522 163.007 45.3653 164.064 44.9645C165.322 44.4739 166.663 44.2338 168.013 44.258C169.295 44.2605 170.57 44.4433 171.801 44.8011C172.941 45.1065 174.022 45.5988 175 46.2579L173.198 50.1933C172.375 49.6393 171.482 49.1981 170.542 48.8815C169.688 48.5858 168.791 48.4303 167.886 48.4212C167.326 48.3918 166.766 48.4877 166.248 48.702C165.877 48.8861 165.691 49.1231 165.691 49.4062C165.691 49.799 165.931 50.1104 166.411 50.3406C167.144 50.6563 167.9 50.9141 168.674 51.1115C169.683 51.3804 170.674 51.714 171.64 52.1103C172.437 52.4468 173.146 52.9627 173.711 53.6178C174.308 54.3389 174.617 55.2554 174.579 56.1907C174.579 57.9183 173.918 59.2569 172.595 60.2066C171.273 61.1563 169.456 61.6289 167.145 61.6243C165.732 61.6351 164.323 61.4752 162.948 61.1479" fill="#F9F9F9"/>
<path d="M54.9527 8.25278C37.1515 3.22194 27.5823 0 27.5823 0C27.5823 0 18.0154 3.22194 0.20957 8.25278C0.20957 8.25278 -4.2137 47.5605 27.5823 61.8314C59.3783 47.5605 54.9527 8.25278 54.9527 8.25278Z" fill="#F9F9F9"/>
<path d="M53.7835 12.9592C38.4402 9.04681 29.1978 5.90771 29.1978 5.90771C29.1978 5.90771 20.0084 11.6773 4.61208 12.9592C4.61208 12.9592 1.16 44.6769 27.4672 58.7568C56.0251 46.5778 53.7835 12.9592 53.7835 12.9592Z" fill="#FFB919"/>
<path d="M52.168 10.5587C37.6347 5.87767 27.5822 3.13672 27.5822 3.13672C27.5822 3.13672 18.257 5.87767 2.99651 10.5587C2.99651 10.5587 -0.977981 45.8666 27.5822 58.6853C56.1402 45.8666 52.168 10.5587 52.168 10.5587Z" fill="#035D7C"/>
<mask id="mask0" style="mask-type:alpha" maskUnits="userSpaceOnUse" x="2" y="3" width="51" height="56">
<path d="M52.168 10.5588C37.6347 5.87779 27.5822 3.13684 27.5822 3.13684C27.5822 3.13684 18.257 5.87779 2.99651 10.5588C2.99651 10.5588 -0.977981 45.8667 27.5822 58.6854C56.1402 45.8667 52.168 10.5588 52.168 10.5588Z" fill="#035D7C"/>
</mask>
<g mask="url(#mask0)">
<path d="M51.4176 47.7078C51.3578 45.8298 50.9136 44.2281 50.0851 42.9025C49.2566 41.5769 47.8758 40.4407 45.9426 39.4941C44.0171 38.549 41.382 37.7696 38.0373 37.1559C36.462 36.8964 34.907 36.5257 33.3839 36.0466C32.3468 35.6876 31.6334 35.3086 31.2437 34.9097C30.8503 34.502 30.6308 33.9574 30.6315 33.3908C30.5947 32.2616 31.0956 31.3472 32.1343 30.6476C33.173 29.9479 34.563 29.5697 36.3044 29.513C38.1188 29.4612 39.9294 29.7068 41.6643 30.2402C43.6574 30.8765 45.5572 31.7742 47.3142 32.9098C47.3142 32.9098 48.3499 30.544 48.6951 29.4577C48.9137 28.7673 49.5834 25.7755 49.5834 25.7755C48.1427 24.6248 46.172 23.7219 43.6711 23.0668C41.1601 22.4102 38.5671 22.1211 35.973 22.2084C35.6508 22.2084 35.3378 22.2383 35.0248 22.2613C35.3092 21.1979 35.4493 20.101 35.4414 19.0002C35.4414 15.565 34.2907 12.8417 31.9893 10.8303C29.6879 8.8189 26.4414 7.80629 22.2498 7.79248H4.77539V44.4927L14.4665 49.0633V30.1643H22.0174C21.4749 31.511 21.2239 32.9573 21.2809 34.408C21.3438 36.355 21.7819 37.9997 22.595 39.3422C23.4082 40.6847 24.789 41.83 26.7375 42.7782C28.683 43.7248 31.3925 44.4843 34.866 45.0566C37.6185 45.5506 39.5003 46.0807 40.5113 46.6468C41.5224 47.213 42.0418 47.9578 42.0694 48.8815C42.1047 49.9048 41.5838 50.7164 40.5067 51.3163C39.4297 51.9162 37.8663 52.2484 35.8165 52.3128C33.7754 52.3744 31.7363 52.1372 29.7639 51.6086C27.7443 51.0752 25.8081 50.2651 24.0104 49.2014L21.205 56.1055C22.9172 57.2823 25.1181 58.1867 27.8077 58.8189C30.4716 59.449 33.2071 59.7237 35.9431 59.6358C40.9647 59.4748 44.828 58.3333 47.5329 56.2114C50.2378 54.0895 51.5319 51.2511 51.4153 47.6962L51.4176 47.7078ZM14.4665 22.9471V15.1224H20.9611C22.8513 15.1224 24.2321 15.4576 25.1035 16.1281C25.975 16.7986 26.413 17.7866 26.4176 19.0923C26.4176 21.6699 24.5965 22.9586 20.9541 22.9586L14.4665 22.9471Z" fill="#042E3A"/>
<path d="M50.5776 50.2769C50.5178 48.3959 50.0729 46.7934 49.2428 45.4693C48.4128 44.1452 47.032 43.0091 45.1003 42.061C43.1718 41.1159 40.5382 40.3365 37.1997 39.7227C35.6244 39.4638 34.0694 39.0938 32.5463 38.6158C31.5091 38.2552 30.7957 37.8755 30.406 37.4766C30.0126 37.0688 29.7931 36.5242 29.7938 35.9577C29.757 34.83 30.2579 33.9156 31.2966 33.2144C32.3353 32.5133 33.7261 32.1351 35.469 32.0798C37.2833 32.0293 39.0937 32.2749 40.829 32.8071C42.6563 33.3633 44.3934 34.1811 45.9864 35.235C45.9864 35.235 46.5847 34.5101 47.5398 32.2156C48.6905 29.454 48.9206 28.5334 48.9206 28.5334C47.48 27.3827 45.3259 26.2757 42.8243 25.6198C40.3133 24.9629 37.7201 24.6745 35.1261 24.7637C33.5739 24.8049 32.0306 25.014 30.5234 25.3874C31.7937 23.6276 32.4289 21.4942 32.4289 18.9872C32.4289 15.552 31.2782 12.8287 28.9768 10.8173C26.6754 8.8059 23.4274 7.80096 19.2327 7.80249H1.77441V44.4935L11.4656 48.8316V30.1651H19.2489C20.4832 30.1719 21.7156 30.0672 22.9311 29.8521C22.6493 30.1826 22.388 30.53 22.1486 30.8923C20.9518 32.6886 20.3555 34.8183 20.4456 36.9749C20.5069 38.9249 20.9442 40.5704 21.7574 41.9114C22.5705 43.2523 23.9514 44.3969 25.8999 45.345C27.8468 46.2901 30.5563 47.0504 34.0284 47.6257C36.7808 48.1182 38.6626 48.6475 39.6737 49.2137C40.6847 49.7798 41.2049 50.5247 41.234 51.4483C41.2662 52.4717 40.7446 53.2833 39.6691 53.8832C38.5936 54.4831 37.0309 54.816 34.9811 54.882C32.9401 54.9436 30.9009 54.7063 28.9285 54.1778C26.9085 53.6444 24.9722 52.8335 23.175 51.7682L20.365 58.6862C22.0773 59.863 24.2789 60.7674 26.97 61.3995C29.6331 62.0295 32.3679 62.3042 35.1031 62.2165C40.1278 62.0554 43.9911 60.9139 46.6929 58.792C49.3947 56.6702 50.6897 53.8318 50.5776 50.2769ZM17.9601 22.9479H11.4656V15.1232H17.9601C19.8487 15.1232 21.2296 15.4584 22.1026 16.1289C22.9756 16.7994 23.4144 17.7874 23.419 19.0931C23.419 21.6707 21.597 22.9594 17.9532 22.9594" fill="#FFB919"/>
</g>
<path d="M28.5442 5.87313C30.3485 6.3104 32.1367 6.79369 33.918 7.30229C35.6992 7.8109 37.4736 8.33562 39.2411 8.87875C40.1294 9.14341 41.0085 9.43338 41.8923 9.70955C42.776 9.98571 43.6551 10.2688 44.5343 10.5611C46.2925 11.1318 48.0462 11.7279 49.7952 12.3354L50.0254 12.4183L50.0415 12.6484C50.0875 13.3595 50.1059 14.0546 50.1105 14.7588C50.1151 15.463 50.0898 16.158 50.0553 16.8577C50.0208 17.5573 49.9586 18.2523 49.8827 18.9473C49.8067 19.6423 49.7009 20.3282 49.5789 21.0186C49.595 20.3282 49.6134 19.6377 49.6088 18.9312C49.6042 18.2247 49.6088 17.5504 49.5789 16.86C49.549 16.1695 49.5214 15.4791 49.4776 14.7887C49.4339 14.0983 49.3787 13.4079 49.2958 12.7336L49.5536 13.0512C47.7785 12.5218 46.0095 11.9772 44.2466 11.4172C43.3629 11.141 42.4822 10.8564 41.6046 10.5634C40.7278 10.2711 39.844 9.99262 38.9695 9.68883C37.2189 9.09661 35.4714 8.48291 33.7269 7.84772C31.9871 7.21714 30.2519 6.56585 28.5327 5.86853" fill="#FFB919"/>
</svg>
