<svg width="533" height="38" viewBox="0 0 533 38" fill="none" xmlns="http://www.w3.org/2000/svg">
<rect x="0.000366211" y="18" width="263" height="0.999878" fill="url(#paint0_linear)"/>
<rect x="270" y="18" width="263" height="0.999878" fill="url(#paint1_linear)"/>
<path d="M282.932 4.94565C272.264 1.93082 266.53 0 266.53 0C266.53 0 260.796 1.93082 250.126 4.94565C250.126 4.94565 247.475 28.5016 266.53 37.0538C285.584 28.5016 282.932 4.94565 282.932 4.94565Z" fill="#F9F9F9"/>
<path d="M282.231 7.76605C273.036 5.42148 267.498 3.54031 267.498 3.54031C267.498 3.54031 261.991 6.99786 252.764 7.76605C252.764 7.76605 250.695 26.7736 266.461 35.2113C283.575 27.9128 282.231 7.76605 282.231 7.76605Z" fill="#FFB919"/>
<path d="M281.263 6.32757C272.554 3.52237 266.53 1.87979 266.53 1.87979C266.53 1.87979 260.941 3.52237 251.796 6.32757C251.796 6.32757 249.414 27.4866 266.53 35.1685C283.644 27.4866 281.263 6.32757 281.263 6.32757Z" fill="#035D7C"/>
<path d="M267.106 3.51957C268.187 3.78161 269.259 4.07124 270.326 4.37603C271.394 4.68082 272.457 4.99527 273.516 5.32075C274.049 5.47935 274.576 5.65313 275.105 5.81863C275.635 5.98413 276.162 6.15376 276.689 6.32892C277.742 6.67095 278.793 7.02815 279.841 7.39224L279.979 7.44189L279.989 7.57981C280.016 8.00597 280.027 8.42247 280.03 8.8445C280.033 9.26652 280.018 9.68302 279.997 10.1023C279.976 10.5216 279.939 10.9381 279.894 11.3546C279.848 11.7711 279.785 12.1821 279.712 12.5958C279.721 12.1821 279.732 11.7683 279.73 11.3449C279.727 10.9215 279.73 10.5174 279.712 10.1037C279.694 9.68992 279.677 9.27617 279.651 8.86243C279.625 8.44868 279.592 8.03493 279.542 7.63084L279.696 7.82116C278.633 7.50396 277.573 7.17756 276.516 6.84196C275.987 6.67646 275.459 6.50591 274.933 6.33029C274.407 6.15514 273.878 5.98826 273.354 5.80621C272.305 5.45131 271.257 5.08354 270.212 4.70289C269.169 4.325 268.129 3.9347 267.099 3.51682" fill="#FFB919"/>
<path d="M263.491 13.0146C262.595 13.0146 261.695 13.3062 261.011 14.0063C259.645 15.4063 259.682 17.5646 261.011 18.9646L266.407 24.6813L271.803 18.9646C273.133 17.5646 273.17 15.4063 271.803 14.0063C270.436 12.6646 268.212 12.6646 266.845 14.0063L266.407 14.4729L265.97 14.0063C265.286 13.3062 264.386 13.0146 263.491 13.0146Z" fill="#FFB919"/>
<defs>
<linearGradient id="paint0_linear" x1="256.5" y1="18" x2="37.0004" y2="18" gradientUnits="userSpaceOnUse">
<stop stop-color="#FFB919"/>
<stop offset="1" stop-color="#FFB919" stop-opacity="0"/>
</linearGradient>
<linearGradient id="paint1_linear" x1="270" y1="18" x2="477.986" y2="20.0001" gradientUnits="userSpaceOnUse">
<stop stop-color="#FFB919"/>
<stop offset="1" stop-color="#FFB919" stop-opacity="0"/>
</linearGradient>
</defs>
</svg>
