<svg width="255" height="285" viewBox="0 0 255 285" fill="none" xmlns="http://www.w3.org/2000/svg">
<path d="M253.517 37.9933C171.566 14.8329 127.512 0 127.512 0C127.512 0 83.4691 14.8329 1.49629 37.9933C1.49629 37.9933 -18.8671 218.954 127.512 284.653C273.891 218.954 253.517 37.9933 253.517 37.9933Z" fill="#F9F9F9"/>
<path d="M248.134 59.6603C177.498 41.649 134.949 27.1975 134.949 27.1975C134.949 27.1975 92.6434 53.7589 21.7635 59.6603C21.7635 59.6603 5.87112 205.679 126.981 270.499C258.454 214.431 248.134 59.6603 248.134 59.6603Z" fill="#FFB919"/>
<path d="M240.698 48.6091C173.791 27.059 127.512 14.4405 127.512 14.4405C127.512 14.4405 84.5817 27.059 14.3269 48.6091C14.3269 48.6091 -3.97054 211.156 127.512 270.17C258.984 211.156 240.698 48.6091 240.698 48.6091Z" fill="#035D7C"/>
<path d="M131.941 27.0382C140.247 29.0512 148.48 31.2761 156.68 33.6176C164.88 35.9591 173.049 38.3747 181.186 40.8751C185.276 42.0935 189.323 43.4285 193.391 44.6999C197.46 45.9713 201.507 47.2744 205.554 48.62C213.649 51.2475 221.722 53.9916 229.774 56.7886L230.834 57.1701L230.908 58.2296C231.12 61.5034 231.205 64.703 231.226 67.9451C231.247 71.1871 231.13 74.3868 230.971 77.6076C230.813 80.8285 230.526 84.0281 230.177 87.2278C229.827 90.4275 229.34 93.5848 228.778 96.7632C228.852 93.5848 228.937 90.4063 228.916 87.1536C228.895 83.901 228.916 80.7967 228.778 77.6182C228.641 74.4398 228.513 71.2613 228.312 68.0828C228.111 64.9043 227.857 61.7259 227.475 58.6216L228.662 60.0837C220.49 57.6468 212.346 55.1394 204.23 52.5613C200.161 51.2899 196.107 49.9797 192.067 48.6306C188.03 47.285 183.962 46.003 179.936 44.6045C171.877 41.8781 163.832 39.0528 155.801 36.1286C147.791 33.2256 139.802 30.2272 131.888 27.017" fill="#FFB919"/>
<g clip-path="url(#clip0)">
<path d="M172.851 145.703L159.64 119.214C159.491 118.921 159.293 118.649 159.041 118.42C158.789 118.193 158.506 118.026 158.211 117.92L142.72 112.353C141.641 111.965 140.485 111.757 139.282 111.768C138.08 111.78 136.93 112.011 135.856 112.42L124.102 116.904C123.275 117.22 122.453 117.584 121.643 117.998C121.373 118.138 121.107 118.289 120.842 118.438C119.955 117.957 119.029 117.534 118.062 117.174C114.978 116.021 111.821 115.632 108.765 115.893L100.857 116.572C100.513 116.601 100.166 116.708 99.8415 116.898C99.517 117.089 99.2491 117.347 99.0383 117.646L81.2328 142.993C80.8659 143.514 80.67 144.176 80.7299 144.877C80.7885 145.578 81.0901 146.192 81.5358 146.634L89.2806 154.31C88.8558 155.087 88.5865 155.96 88.5245 156.895C88.4128 158.574 88.9642 160.195 90.0723 161.46C91.1818 162.724 92.7161 163.482 94.3964 163.591C94.486 163.597 94.5769 163.597 94.6677 163.601C93.979 165.827 94.5425 168.356 96.3367 170.054C97.4105 171.07 98.7872 171.663 100.25 171.758C99.3076 174.094 99.8173 176.88 101.743 178.702C102.918 179.816 104.454 180.427 106.074 180.427C107.759 180.427 109.332 179.769 110.52 178.58C110.961 181.433 113.332 183.708 116.33 183.904C116.468 183.913 116.609 183.92 116.747 183.92C117.513 183.92 118.247 183.775 118.93 183.52C120.044 184.264 121.373 184.673 122.788 184.616C124.526 184.543 126.085 183.776 127.251 182.576L122.992 178.326C123.002 178.228 123.02 178.134 123.024 178.032C123.079 177.197 122.965 176.389 122.716 175.639L131.434 184.334C132.534 184.782 133.731 185.006 134.978 184.956C137.473 184.854 139.695 183.676 141.269 181.853L142.142 180.841C142.223 180.745 142.284 180.638 142.338 180.522L128.916 167.137C128.57 166.794 128.543 166.224 128.85 165.865C129.157 165.508 129.69 165.496 130.034 165.839L145.997 181.757C146.866 182.062 147.798 182.211 148.765 182.171C150.958 182.082 152.915 181.045 154.299 179.44L156.407 177C156.89 176.437 157.178 175.678 157.151 174.852L143.144 160.887C142.802 160.544 142.771 159.972 143.078 159.616C143.387 159.258 143.919 159.246 144.262 159.589L158.336 173.622C158.913 173.777 159.52 173.852 160.143 173.827C161.941 173.754 163.541 172.906 164.673 171.591L165.24 170.936C166.373 169.623 167.04 167.846 166.972 165.913C166.904 163.981 166.116 162.264 164.895 161.046L161.138 157.3L162.087 158.245L172.246 149.072C172.677 148.684 172.99 148.141 173.105 147.503C173.219 146.865 173.116 146.236 172.851 145.703ZM94.5728 160.876C93.6202 160.814 92.749 160.384 92.1182 159.665C91.4881 158.948 91.1771 158.028 91.2403 157.073C91.3608 155.2 92.9295 153.733 94.8024 153.733C94.8818 153.733 94.9626 153.735 95.0421 153.739C95.9947 153.803 96.8658 154.231 97.4967 154.95C98.1268 155.669 98.4378 156.588 98.3766 157.543C98.246 159.496 96.5487 161.008 94.5728 160.876ZM100.664 169.055C99.7459 169.055 98.8734 168.709 98.2069 168.078C96.7925 166.741 96.7157 164.488 98.0285 163.064C98.0965 162.993 99.4914 161.517 100.161 160.813L100.512 160.439C101.195 159.719 102.117 159.322 103.109 159.322C104.028 159.322 104.901 159.67 105.566 160.302C106.26 160.958 106.658 161.844 106.684 162.8C106.71 163.753 106.362 164.661 105.707 165.353L104.712 166.405C104.499 166.629 104.271 166.871 104.037 167.117C104 167.159 103.959 167.201 103.923 167.24C103.75 167.422 103.596 167.584 103.477 167.708C103.409 167.782 103.341 167.855 103.271 167.926C103.253 167.944 103.24 167.96 103.239 167.962C102.561 168.668 101.645 169.055 100.664 169.055ZM108.646 176.613C107.967 177.319 107.053 177.706 106.072 177.706C105.154 177.706 104.279 177.358 103.615 176.727C102.201 175.39 102.124 173.137 103.432 171.719C103.463 171.686 104.283 170.818 105.211 169.839C105.211 169.838 105.211 169.838 105.211 169.838L105.901 169.111C107.108 167.833 107.504 167.417 107.637 167.273C107.652 167.258 107.67 167.242 107.683 167.227L107.686 167.225C107.802 167.099 107.87 167.029 107.872 167.027C108.554 166.307 109.477 165.909 110.47 165.909C111.389 165.909 112.26 166.256 112.927 166.887C113.621 167.545 114.017 168.432 114.043 169.385C114.07 170.342 113.722 171.249 113.064 171.945C113 172.012 108.784 176.466 108.646 176.613ZM116.507 181.191C114.539 181.06 113.044 179.354 113.173 177.389C113.297 175.514 114.859 174.047 116.735 174.047C116.814 174.047 116.895 174.049 116.974 174.054C118.941 174.183 120.437 175.889 120.309 177.856C120.18 179.807 118.485 181.321 116.507 181.191ZM160.216 156.382L132.389 128.638L132.702 127.846C132.865 127.432 132.844 126.944 132.606 126.534C132.368 126.124 131.969 125.886 131.552 125.864L129.484 125.74L127.224 125.606L127.053 128.284C127.051 128.34 126.603 134.43 123.497 139.932C120.314 145.578 116.095 147.525 115.452 147.651C114.734 147.79 113.981 147.923 113.355 147.923C112.924 147.923 112.593 147.862 112.31 147.732L111.253 147.243C110.81 147.037 110.472 146.66 110.294 146.18C110.12 145.716 110.122 145.209 110.294 144.746L120.878 121.519L122.677 120.333L123.402 120.057H123.401L136.703 114.984C137.539 114.665 138.415 114.498 139.304 114.49L139.378 114.489C140.241 114.489 141.096 114.639 141.915 114.934L157.407 120.501L170.619 146.99L160.216 156.382Z" fill="white"/>
<path d="M175.272 102.297L164.814 107.511C163.31 108.263 162.09 109.588 161.514 111.308C160.938 113.03 161.117 114.821 161.865 116.329L175.557 143.78C176.308 145.283 177.632 146.505 179.357 147.078C181.076 147.655 182.867 147.479 184.374 146.728L194.83 141.511L175.272 102.297ZM184.347 141.527C182.958 141.527 181.829 140.401 181.829 139.01C181.829 137.618 182.958 136.489 184.347 136.489C185.739 136.489 186.868 137.618 186.868 139.01C186.868 140.401 185.739 141.527 184.347 141.527Z" fill="white"/>
<path d="M60.1843 135.525L69.7455 142.242C71.1216 143.21 72.8673 143.651 74.6554 143.338C76.4448 143.026 77.9353 142.018 78.9014 140.642L96.5353 115.54C97.5041 114.165 97.945 112.417 97.6333 110.631C97.3189 108.842 96.3145 107.35 94.937 106.382L85.3745 99.6663L60.1843 135.525ZM68.4314 134.237C68.6387 132.861 69.9226 131.913 71.2966 132.12C72.6741 132.328 73.6199 133.612 73.4139 134.988C73.2059 136.365 71.9234 137.313 70.5467 137.103C69.1699 136.897 68.2233 135.614 68.4314 134.237Z" fill="white"/>
</g>
<defs>
<clipPath id="clip0">
<rect width="134.646" height="134.646" fill="white" transform="translate(60.1843 74.9925)"/>
</clipPath>
</defs>
</svg>
